<svg version="1.1" xmlns="http://www.w3.org/2000/svg" xmlns:xlink="http://www.w3.org/1999/xlink" width="564" height="491"><defs/><g><g transform="translate(-22,-6) scale(1,1)"><path fill="#ffffff" stroke="none" d="M 69.82072727272727 129.68 C 69.82072727272727 124.886167936 73.70656959767273 121 78.5 121 C 83.29343040232727 121 87.17927272727273 124.886167936 87.17927272727273 129.68 C 87.17927272727273 134.47383206400002 83.29343040232727 138.36 78.5 138.36 C 73.70656959767273 138.36 69.82072727272727 134.47383206400002 69.82072727272727 129.68 Z"/></g><g transform="translate(-22,-6) scale(1,1)"><path fill="none" stroke="#000000" d="M 69.82072727272727 129.68 C 69.82072727272727 124.886167936 73.70656959767273 121 78.5 121 C 83.29343040232727 121 87.17927272727273 124.886167936 87.17927272727273 129.68 C 87.17927272727273 134.47383206400002 83.29343040232727 138.36 78.5 138.36 C 73.70656959767273 138.36 69.82072727272727 134.47383206400002 69.82072727272727 129.68 Z" stroke-miterlimit="10"/></g><g transform="translate(-22,-6) scale(1,1)"><path fill="none" stroke="#000000" d="M 78.5 138.36 L 78.5 155.64" stroke-miterlimit="10"/></g><g transform="translate(-22,-6) scale(1,1)"><path fill="none" stroke="#000000" d="M 69.31018181818182 144.84 L 87.68981818181818 144.84" stroke-miterlimit="10"/></g><g transform="translate(-22,-6) scale(1,1)"><path fill="none" stroke="#000000" d="M 78.5 155.64 L 65.73636363636363 173" stroke-miterlimit="10"/></g><g transform="translate(-22,-6) scale(1,1)"><path fill="none" stroke="#000000" d="M 78.5 155.64 L 91.26363636363637 173" stroke-miterlimit="10"/></g><g transform="translate(-22,-6) scale(1,1)"><g><path fill="none" stroke="none"/><text fill="#000000" stroke="none" font-family="Arial" font-size="13px" font-style="normal" font-weight="bold" text-decoration="none" x="39.5" y="193.5">文档制作人员</text></g></g><g transform="translate(-22,-6) scale(1,1)"><path fill="#C0C0C0" stroke="none" d="M 159 168 C 159 158.6111584 188.3253456 151 224.5 151 C 260.6746544 151 290 158.6111584 290 168 C 290 177.3888416 260.6746544 185 224.5 185 C 188.3253456 185 159 177.3888416 159 168 Z" opacity="0.2"/></g><g transform="translate(-22,-6) scale(1,1)"><path fill="#ffffff" stroke="none" d="M 152 161 C 152 151.6111584 181.3253456 144 217.5 144 C 253.6746544 144 283 151.6111584 283 161 C 283 170.3888416 253.6746544 178 217.5 178 C 181.3253456 178 152 170.3888416 152 161 Z"/></g><g transform="translate(-22,-6) scale(1,1)"><path fill="none" stroke="#000000" d="M 152 161 C 152 151.6111584 181.3253456 144 217.5 144 C 253.6746544 144 283 151.6111584 283 161 C 283 170.3888416 253.6746544 178 217.5 178 C 181.3253456 178 152 170.3888416 152 161 Z" stroke-miterlimit="10"/></g><g transform="translate(-22,-6) scale(1,1)"><g><path fill="none" stroke="none"/><text fill="#000000" stroke="none" font-family="Arial" font-size="13px" font-style="normal" font-weight="bold" text-decoration="none" x="178.5" y="168">制作文档模板</text></g></g><g transform="translate(-22,-6) scale(1,1)"><path fill="#ffffff" stroke="none" d="M 48.40935031960227 417.68 C 48.40935031960227 412.886167936 52.295192644547726 409 57.088623046875 409 C 61.882053449202274 409 65.76789577414773 412.886167936 65.76789577414773 417.68 C 65.76789577414773 422.473832064 61.882053449202274 426.36 57.088623046875 426.36 C 52.295192644547726 426.36 48.40935031960227 422.473832064 48.40935031960227 417.68 Z"/></g><g transform="translate(-22,-6) scale(1,1)"><path fill="none" stroke="#000000" d="M 48.40935031960227 417.68 C 48.40935031960227 412.886167936 52.295192644547726 409 57.088623046875 409 C 61.882053449202274 409 65.76789577414773 412.886167936 65.76789577414773 417.68 C 65.76789577414773 422.473832064 61.882053449202274 426.36 57.088623046875 426.36 C 52.295192644547726 426.36 48.40935031960227 422.473832064 48.40935031960227 417.68 Z" stroke-miterlimit="10"/></g><g transform="translate(-22,-6) scale(1,1)"><path fill="none" stroke="#000000" d="M 57.088623046875 426.36 L 57.088623046875 443.64" stroke-miterlimit="10"/></g><g transform="translate(-22,-6) scale(1,1)"><path fill="none" stroke="#000000" d="M 47.89880486505682 432.84 L 66.27844122869318 432.84" stroke-miterlimit="10"/></g><g transform="translate(-22,-6) scale(1,1)"><path fill="none" stroke="#000000" d="M 57.088623046875 443.64 L 44.324986683238635 461" stroke-miterlimit="10"/></g><g transform="translate(-22,-6) scale(1,1)"><path fill="none" stroke="#000000" d="M 57.088623046875 443.64 L 69.85225941051137 461" stroke-miterlimit="10"/></g><g transform="translate(-22,-6) scale(1,1)"><g><path fill="none" stroke="none"/><text fill="#000000" stroke="none" font-family="Arial" font-size="13px" font-style="normal" font-weight="bold" text-decoration="none" x="44.088623046875" y="481.5">用户</text></g></g><g transform="translate(-22,-6) scale(1,1)"><path fill="#C0C0C0" stroke="none" d="M 135 408 C 135 398.6111584 190.9644 391 260 391 C 329.0356 391 385 398.6111584 385 408 C 385 417.3888416 329.0356 425 260 425 C 190.9644 425 135 417.3888416 135 408 Z" opacity="0.2"/></g><g transform="translate(-22,-6) scale(1,1)"><path fill="#ffffff" stroke="none" d="M 128 401 C 128 391.6111584 183.9644 384 253 384 C 322.0356 384 378 391.6111584 378 401 C 378 410.3888416 322.0356 418 253 418 C 183.9644 418 128 410.3888416 128 401 Z"/></g><g transform="translate(-22,-6) scale(1,1)"><path fill="none" stroke="#000000" d="M 128 401 C 128 391.6111584 183.9644 384 253 384 C 322.0356 384 378 391.6111584 378 401 C 378 410.3888416 322.0356 418 253 418 C 183.9644 418 128 410.3888416 128 401 Z" stroke-miterlimit="10"/></g><g transform="translate(-22,-6) scale(1,1)"><g><path fill="none" stroke="none"/><text fill="#000000" stroke="none" font-family="Arial" font-size="13px" font-style="normal" font-weight="bold" text-decoration="none" x="175" y="408">依照模板根据数据生成文档</text></g></g><g transform="translate(-22,-6) scale(1,1)"><path fill="none" stroke="#000000" d="M 83 441 L 176 419" stroke-miterlimit="10"/></g><g transform="translate(-22,-6) scale(1,1)"><path fill="none" stroke="#000000" d="M 167.07932890807274 425.4359635851715 L 176 419 L 165.14121948361898 417.2430464727079" stroke-miterlimit="10"/></g><g transform="translate(-22,-6) scale(1,1)"><path fill="none" stroke="#000000" d="M 126 160 L 151 160" stroke-miterlimit="10"/></g><g transform="translate(-22,-6) scale(1,1)"><path fill="none" stroke="#000000" d="M 140.83732514237585 164.209517756016 L 151 160 L 140.83732514237585 155.790482243984" stroke-miterlimit="10"/></g><g transform="translate(-22,-6) scale(1,1)"><path fill="#C0C0C0" stroke="none" d="M 231 40 C 231 30.6111584 260.3253456 23 296.5 23 C 332.6746544 23 362 30.6111584 362 40 C 362 49.3888416 332.6746544 57 296.5 57 C 260.3253456 57 231 49.3888416 231 40 Z" opacity="0.2"/></g><g transform="translate(-22,-6) scale(1,1)"><path fill="#ffffff" stroke="none" d="M 224 33 C 224 23.6111584 253.3253456 16 289.5 16 C 325.6746544 16 355 23.6111584 355 33 C 355 42.3888416 325.6746544 50 289.5 50 C 253.3253456 50 224 42.3888416 224 33 Z"/></g><g transform="translate(-22,-6) scale(1,1)"><path fill="none" stroke="#000000" d="M 224 33 C 224 23.6111584 253.3253456 16 289.5 16 C 325.6746544 16 355 23.6111584 355 33 C 355 42.3888416 325.6746544 50 289.5 50 C 253.3253456 50 224 42.3888416 224 33 Z" stroke-miterlimit="10"/></g><g transform="translate(-22,-6) scale(1,1)"><g><path fill="none" stroke="none"/><text fill="#000000" stroke="none" font-family="Arial" font-size="13px" font-style="normal" font-weight="bold" text-decoration="none" x="250.5" y="40">编辑模板格式</text></g></g><g transform="translate(-22,-6) scale(1,1)"><path fill="#C0C0C0" stroke="none" d="M 343 144 C 343 134.6111584 385.9806592 127 439 127 C 492.0193408 127 535 134.6111584 535 144 C 535 153.3888416 492.0193408 161 439 161 C 385.9806592 161 343 153.3888416 343 144 Z" opacity="0.2"/></g><g transform="translate(-22,-6) scale(1,1)"><path fill="#ffffff" stroke="none" d="M 336 137 C 336 127.6111584 378.9806592 120 432 120 C 485.0193408 120 528 127.6111584 528 137 C 528 146.3888416 485.0193408 154 432 154 C 378.9806592 154 336 146.3888416 336 137 Z"/></g><g transform="translate(-22,-6) scale(1,1)"><path fill="none" stroke="#000000" d="M 336 137 C 336 127.6111584 378.9806592 120 432 120 C 485.0193408 120 528 127.6111584 528 137 C 528 146.3888416 485.0193408 154 432 154 C 378.9806592 154 336 146.3888416 336 137 Z" stroke-miterlimit="10"/></g><g transform="translate(-22,-6) scale(1,1)"><g><path fill="none" stroke="none"/><text fill="#000000" stroke="none" font-family="Arial" font-size="13px" font-style="normal" font-weight="bold" text-decoration="none" x="380" y="144">向模板中插入数据</text></g></g><g transform="translate(-22,-6) scale(1,1)"><path fill="none" stroke="#000000" d="M 227 143 L 279 51" stroke-miterlimit="10" stroke-dasharray="3"/></g><g transform="translate(-22,-6) scale(1,1)"><path fill="none" stroke="#000000" d="M 277.6640318164697 61.918570831963066 L 279 51 L 270.33473236182954 57.77592331412297" stroke-miterlimit="10"/></g><g transform="translate(-22,-6) scale(1,1)"><g><path fill="none" stroke="none"/><text fill="#000000" stroke="none" font-family="Arial" font-size="13px" font-style="normal" font-weight="normal" text-decoration="none" x="198.5" y="88.5">«include»</text></g></g><g transform="translate(-22,-6) scale(1,1)"><path fill="none" stroke="#000000" d="M 284 154 L 335 148" stroke-miterlimit="10" stroke-dasharray="3"/></g><g transform="translate(-22,-6) scale(1,1)"><path fill="none" stroke="#000000" d="M 325.3987786298837 153.3681047122818 L 335 148 L 324.41508801734363 145.00673450569147" stroke-miterlimit="10"/></g><g transform="translate(-22,-6) scale(1,1)"><g><path fill="none" stroke="none"/><text fill="#000000" stroke="none" font-family="Arial" font-size="13px" font-style="normal" font-weight="normal" text-decoration="none" x="277.5" y="127.5">«include»</text></g></g><g transform="translate(-22,-6) scale(1,1)"><path fill="#C0C0C0" stroke="none" d="M 327 248 C 327 238.6111584 369.7568016 231 422.5 231 C 475.2431984 231 518 238.6111584 518 248 C 518 257.3888416 475.2431984 265 422.5 265 C 369.7568016 265 327 257.3888416 327 248 Z" opacity="0.2"/></g><g transform="translate(-22,-6) scale(1,1)"><path fill="#ffffff" stroke="none" d="M 320 241 C 320 231.6111584 362.7568016 224 415.5 224 C 468.2431984 224 511 231.6111584 511 241 C 511 250.3888416 468.2431984 258 415.5 258 C 362.7568016 258 320 250.3888416 320 241 Z"/></g><g transform="translate(-22,-6) scale(1,1)"><path fill="none" stroke="#000000" d="M 320 241 C 320 231.6111584 362.7568016 224 415.5 224 C 468.2431984 224 511 231.6111584 511 241 C 511 250.3888416 468.2431984 258 415.5 258 C 362.7568016 258 320 250.3888416 320 241 Z" stroke-miterlimit="10"/></g><g transform="translate(-22,-6) scale(1,1)"><g><path fill="none" stroke="none"/><text fill="#000000" stroke="none" font-family="Arial" font-size="13px" font-style="normal" font-weight="bold" text-decoration="none" x="357" y="248">保存编辑完毕的模板</text></g></g><g transform="translate(-22,-6) scale(1,1)"><path fill="none" stroke="#000000" d="M 262 179 L 370 223" stroke-miterlimit="10" stroke-dasharray="3"/></g><g transform="translate(-22,-6) scale(1,1)"><path fill="none" stroke="#000000" d="M 359.00018651309637 223.0640566415997 L 370 223 L 362.17666240596805 215.26725217727838" stroke-miterlimit="10"/></g><g transform="translate(-22,-6) scale(1,1)"><g><path fill="none" stroke="none"/><text fill="#000000" stroke="none" font-family="Arial" font-size="13px" font-style="normal" font-weight="normal" text-decoration="none" x="305.5" y="183.5">«include»</text></g></g><g transform="translate(-22,-6) scale(1,1)"><path fill="#C0C0C0" stroke="none" d="M 119 296 C 119 286.6111584 141.6096176 279 169.5 279 C 197.3903824 279 220 286.6111584 220 296 C 220 305.3888416 197.3903824 313 169.5 313 C 141.6096176 313 119 305.3888416 119 296 Z" opacity="0.2"/></g><g transform="translate(-22,-6) scale(1,1)"><path fill="#ffffff" stroke="none" d="M 112 289 C 112 279.6111584 134.6096176 272 162.5 272 C 190.3903824 272 213 279.6111584 213 289 C 213 298.3888416 190.3903824 306 162.5 306 C 134.6096176 306 112 298.3888416 112 289 Z"/></g><g transform="translate(-22,-6) scale(1,1)"><path fill="none" stroke="#000000" d="M 112 289 C 112 279.6111584 134.6096176 272 162.5 272 C 190.3903824 272 213 279.6111584 213 289 C 213 298.3888416 190.3903824 306 162.5 306 C 134.6096176 306 112 298.3888416 112 289 Z" stroke-miterlimit="10"/></g><g transform="translate(-22,-6) scale(1,1)"><g><path fill="none" stroke="none"/><text fill="#000000" stroke="none" font-family="Arial" font-size="13px" font-style="normal" font-weight="bold" text-decoration="none" x="136.5" y="296">载入模板</text></g></g><g transform="translate(-22,-6) scale(1,1)"><path fill="#C0C0C0" stroke="none" d="M 471 40 C 471 30.6111584 496.0720512 23 527 23 C 557.9279488 23 583 30.6111584 583 40 C 583 49.3888416 557.9279488 57 527 57 C 496.0720512 57 471 49.3888416 471 40 Z" opacity="0.2"/></g><g transform="translate(-22,-6) scale(1,1)"><path fill="#ffffff" stroke="none" d="M 464 33 C 464 23.6111584 489.0720512 16 520 16 C 550.9279488 16 576 23.6111584 576 33 C 576 42.3888416 550.9279488 50 520 50 C 489.0720512 50 464 42.3888416 464 33 Z"/></g><g transform="translate(-22,-6) scale(1,1)"><path fill="none" stroke="#000000" d="M 464 33 C 464 23.6111584 489.0720512 16 520 16 C 550.9279488 16 576 23.6111584 576 33 C 576 42.3888416 550.9279488 50 520 50 C 489.0720512 50 464 42.3888416 464 33 Z" stroke-miterlimit="10"/></g><g transform="translate(-22,-6) scale(1,1)"><g><path fill="none" stroke="none"/><text fill="#000000" stroke="none" font-family="Arial" font-size="13px" font-style="normal" font-weight="bold" text-decoration="none" x="487.5" y="40">制作数据图</text></g></g><g transform="translate(-22,-6) scale(1,1)"><path fill="#C0C0C0" stroke="none" d="M 263 296 C 263 286.6111584 285.6096176 279 313.5 279 C 341.3903824 279 364 286.6111584 364 296 C 364 305.3888416 341.3903824 313 313.5 313 C 285.6096176 313 263 305.3888416 263 296 Z" opacity="0.2"/></g><g transform="translate(-22,-6) scale(1,1)"><path fill="#ffffff" stroke="none" d="M 256 289 C 256 279.6111584 278.6096176 272 306.5 272 C 334.3903824 272 357 279.6111584 357 289 C 357 298.3888416 334.3903824 306 306.5 306 C 278.6096176 306 256 298.3888416 256 289 Z"/></g><g transform="translate(-22,-6) scale(1,1)"><path fill="none" stroke="#000000" d="M 256 289 C 256 279.6111584 278.6096176 272 306.5 272 C 334.3903824 272 357 279.6111584 357 289 C 357 298.3888416 334.3903824 306 306.5 306 C 278.6096176 306 256 298.3888416 256 289 Z" stroke-miterlimit="10"/></g><g transform="translate(-22,-6) scale(1,1)"><g><path fill="none" stroke="none"/><text fill="#000000" stroke="none" font-family="Arial" font-size="13px" font-style="normal" font-weight="bold" text-decoration="none" x="280.5" y="296">载入数据</text></g></g><g transform="translate(-22,-6) scale(1,1)"><path fill="none" stroke="#000000" d="M 209 179 L 170 271" stroke-miterlimit="10" stroke-dasharray="3"/></g><g transform="translate(-22,-6) scale(1,1)"><path fill="none" stroke="#000000" d="M 170.09075495069573 260.00037439096565 L 170 271 L 177.8420832997246 263.28626358240183" stroke-miterlimit="10"/></g><g transform="translate(-22,-6) scale(1,1)"><g><path fill="none" stroke="none"/><text fill="#000000" stroke="none" font-family="Arial" font-size="13px" font-style="normal" font-weight="normal" text-decoration="none" x="188.5" y="242.5">«include»</text></g></g><g transform="translate(-22,-6) scale(1,1)"><path fill="none" stroke="#000000" d="M 230 179 L 293 271" stroke-miterlimit="10" stroke-dasharray="3"/></g><g transform="translate(-22,-6) scale(1,1)"><path fill="none" stroke="#000000" d="M 283.78481473295386 264.993307025158 L 293 271 L 290.7312533427977 260.23650667276496" stroke-miterlimit="10"/></g><g transform="translate(-22,-6) scale(1,1)"><g><path fill="none" stroke="none"/><text fill="#000000" stroke="none" font-family="Arial" font-size="13px" font-style="normal" font-weight="normal" text-decoration="none" x="257.5" y="213.5">«include»</text></g></g><g transform="translate(-22,-6) scale(1,1)"><path fill="none" stroke="#000000" d="M 238 383 L 177 307" stroke-miterlimit="10" stroke-dasharray="3"/></g><g transform="translate(-22,-6) scale(1,1)"><path fill="none" stroke="#000000" d="M 186.64414467457257 312.2906023755252 L 177 307 L 180.07841928183885 317.56046091442994" stroke-miterlimit="10"/></g><g transform="translate(-22,-6) scale(1,1)"><g><path fill="none" stroke="none"/><text fill="#000000" stroke="none" font-family="Arial" font-size="13px" font-style="normal" font-weight="normal" text-decoration="none" x="155.5" y="369.5">«include»</text></g></g><g transform="translate(-22,-6) scale(1,1)"><path fill="none" stroke="#000000" d="M 262 383 L 297 307" stroke-miterlimit="10" stroke-dasharray="3"/></g><g transform="translate(-22,-6) scale(1,1)"><path fill="none" stroke="#000000" d="M 296.57249402768537 317.9916895263483 L 297 307 L 288.9254094272005 314.4700058287566" stroke-miterlimit="10"/></g><g transform="translate(-22,-6) scale(1,1)"><g><path fill="none" stroke="none"/><text fill="#000000" stroke="none" font-family="Arial" font-size="13px" font-style="normal" font-weight="normal" text-decoration="none" x="223.5" y="338.5">«include»</text></g></g><g transform="translate(-22,-6) scale(1,1)"><path fill="none" stroke="#000000" d="M 505 51 L 447 119" stroke-miterlimit="10" stroke-dasharray="3"/></g><g transform="translate(-22,-6) scale(1,1)"><path fill="none" stroke="#000000" d="M 450.3922893274261 108.53613966458693 L 447 119 L 456.7977773877293 113.99964418661023" stroke-miterlimit="10"/></g><g transform="translate(-22,-6) scale(1,1)"><g><path fill="none" stroke="none"/><text fill="#000000" stroke="none" font-family="Arial" font-size="13px" font-style="normal" font-weight="normal" text-decoration="none" x="471.5" y="110.5">«extend»</text></g></g></g></svg>